<mxfile host="app.diagrams.net" modified="2022-09-15T01:51:37.617Z" agent="5.0 (Windows NT 10.0; Win64; x64) AppleWebKit/537.36 (KHTML, like Gecko) Chrome/105.0.0.0 Safari/537.36 Edg/105.0.1343.33" etag="CtXgcXvRnr3sp6WdFqRF" version="20.3.0" type="github">
  <diagram id="9U3Q2FAloubjgjWKz3vD" name="Page-1">
    <mxGraphModel dx="2188" dy="1172" grid="1" gridSize="10" guides="1" tooltips="1" connect="1" arrows="1" fold="1" page="1" pageScale="1" pageWidth="850" pageHeight="1100" math="0" shadow="0">
      <root>
        <mxCell id="0" />
        <mxCell id="1" parent="0" />
        <mxCell id="BqHGPQTl1dKRI6JXevEI-2" value="" style="verticalLabelPosition=bottom;verticalAlign=top;html=1;shape=mxgraph.basic.polygon;polyCoords=[[0,0],[0.71,0],[1,0.5],[1,0.75],[1,1],[0,1],[0,0.75],[0,0.25]];polyline=0;" vertex="1" parent="1">
          <mxGeometry x="200" y="400" width="580" height="150" as="geometry" />
        </mxCell>
        <mxCell id="eTlVAKslrcXKdiBdUREp-3" value="Software Project - Knight&#39;s Tour Chess Problem" style="text;strokeColor=none;fillColor=none;html=1;fontSize=24;fontStyle=1;verticalAlign=middle;align=center;" parent="1" vertex="1">
          <mxGeometry x="124" y="30" width="602" height="40" as="geometry" />
        </mxCell>
        <mxCell id="eTlVAKslrcXKdiBdUREp-4" value="This is a general flowchart for the Knight&#39;s tour chess problem I am attempting to solve in Pygame. This is an extremely large and difficult project, therefore for convenience, I have included a key to denote the degree of completion of parts included in this flowchart.&amp;nbsp;" style="text;html=1;strokeColor=none;fillColor=none;align=center;verticalAlign=middle;whiteSpace=wrap;rounded=0;" parent="1" vertex="1">
          <mxGeometry x="385" y="157.5" width="330" height="102.5" as="geometry" />
        </mxCell>
        <mxCell id="eTlVAKslrcXKdiBdUREp-5" value="Key:" style="text;html=1;strokeColor=none;fillColor=none;align=center;verticalAlign=middle;whiteSpace=wrap;rounded=0;" parent="1" vertex="1">
          <mxGeometry x="200" y="160" width="30" height="20" as="geometry" />
        </mxCell>
        <mxCell id="eTlVAKslrcXKdiBdUREp-6" value="" style="rounded=1;whiteSpace=wrap;html=1;fillColor=#d5e8d4;strokeColor=#82b366;" parent="1" vertex="1">
          <mxGeometry x="200" y="180" width="20" height="20" as="geometry" />
        </mxCell>
        <mxCell id="eTlVAKslrcXKdiBdUREp-7" value="" style="rounded=1;whiteSpace=wrap;html=1;fillColor=#fff2cc;strokeColor=#d6b656;" parent="1" vertex="1">
          <mxGeometry x="200" y="210" width="20" height="20" as="geometry" />
        </mxCell>
        <mxCell id="eTlVAKslrcXKdiBdUREp-8" value="" style="rounded=1;whiteSpace=wrap;html=1;fillColor=#f8cecc;strokeColor=#b85450;" parent="1" vertex="1">
          <mxGeometry x="200" y="240" width="20" height="20" as="geometry" />
        </mxCell>
        <mxCell id="eTlVAKslrcXKdiBdUREp-10" value="= In Progress" style="text;html=1;strokeColor=none;fillColor=none;align=left;verticalAlign=middle;rounded=0;" parent="1" vertex="1">
          <mxGeometry x="220" y="212.5" width="70" height="15" as="geometry" />
        </mxCell>
        <mxCell id="eTlVAKslrcXKdiBdUREp-11" value="= Fully Implemented" style="text;html=1;strokeColor=none;fillColor=none;align=left;verticalAlign=middle;rounded=0;" parent="1" vertex="1">
          <mxGeometry x="220" y="182.5" width="120" height="15" as="geometry" />
        </mxCell>
        <mxCell id="eTlVAKslrcXKdiBdUREp-12" value="= Not Implemented" style="text;html=1;strokeColor=none;fillColor=none;align=left;verticalAlign=middle;rounded=0;" parent="1" vertex="1">
          <mxGeometry x="220" y="235" width="100" height="30" as="geometry" />
        </mxCell>
        <mxCell id="eTlVAKslrcXKdiBdUREp-13" value="Project Start" style="html=1;dashed=0;whitespace=wrap;shape=mxgraph.dfd.start;fillColor=#d5e8d4;strokeColor=#82b366;" parent="1" vertex="1">
          <mxGeometry x="40" y="120" width="120" height="40" as="geometry" />
        </mxCell>
        <mxCell id="eTlVAKslrcXKdiBdUREp-14" value="&lt;font style=&quot;font-size: 11px;&quot;&gt;Import Pygame and OS&lt;/font&gt;" style="rounded=1;whiteSpace=wrap;html=1;fillColor=#d5e8d4;strokeColor=#82b366;" parent="1" vertex="1">
          <mxGeometry x="40" y="200" width="120" height="62.5" as="geometry" />
        </mxCell>
        <mxCell id="eTlVAKslrcXKdiBdUREp-15" value="" style="endArrow=none;html=1;rounded=0;fontSize=11;entryX=0.5;entryY=0.5;entryDx=0;entryDy=20;entryPerimeter=0;exitX=0.5;exitY=0;exitDx=0;exitDy=0;" parent="1" source="eTlVAKslrcXKdiBdUREp-14" target="eTlVAKslrcXKdiBdUREp-13" edge="1">
          <mxGeometry width="50" height="50" relative="1" as="geometry">
            <mxPoint x="80" y="220" as="sourcePoint" />
            <mxPoint x="130" y="170" as="targetPoint" />
          </mxGeometry>
        </mxCell>
        <mxCell id="eTlVAKslrcXKdiBdUREp-17" value="&lt;font style=&quot;font-size: 10px;&quot;&gt;Create a Window with Pygame&lt;/font&gt;" style="rounded=1;whiteSpace=wrap;html=1;fillColor=#d5e8d4;strokeColor=#82b366;" parent="1" vertex="1">
          <mxGeometry x="40" y="300" width="120" height="60" as="geometry" />
        </mxCell>
        <mxCell id="eTlVAKslrcXKdiBdUREp-18" value="" style="endArrow=none;html=1;rounded=0;fontSize=10;entryX=0.5;entryY=1;entryDx=0;entryDy=0;exitX=0.5;exitY=0;exitDx=0;exitDy=0;" parent="1" source="eTlVAKslrcXKdiBdUREp-17" target="eTlVAKslrcXKdiBdUREp-14" edge="1">
          <mxGeometry width="50" height="50" relative="1" as="geometry">
            <mxPoint x="60" y="280" as="sourcePoint" />
            <mxPoint x="110" y="230" as="targetPoint" />
          </mxGeometry>
        </mxCell>
        <mxCell id="K6Ctk4DiYDlHX3P9UcAB-1" value="Produce &quot;create_board&quot; Function" style="rounded=1;whiteSpace=wrap;html=1;fontSize=10;fillColor=#d5e8d4;strokeColor=#82b366;" parent="1" vertex="1">
          <mxGeometry x="40" y="500" width="120" height="60" as="geometry" />
        </mxCell>
        <mxCell id="K6Ctk4DiYDlHX3P9UcAB-2" value="" style="rounded=0;whiteSpace=wrap;html=1;fontSize=10;" parent="1" vertex="1">
          <mxGeometry x="200" y="285" width="390" height="90" as="geometry" />
        </mxCell>
        <mxCell id="K6Ctk4DiYDlHX3P9UcAB-3" value="" style="endArrow=none;dashed=1;html=1;dashPattern=1 3;strokeWidth=2;rounded=0;fontSize=10;exitX=1;exitY=0.5;exitDx=0;exitDy=0;entryX=0;entryY=0.5;entryDx=0;entryDy=0;" parent="1" source="eTlVAKslrcXKdiBdUREp-17" target="K6Ctk4DiYDlHX3P9UcAB-2" edge="1">
          <mxGeometry width="50" height="50" relative="1" as="geometry">
            <mxPoint x="280" y="260" as="sourcePoint" />
            <mxPoint x="260" y="250" as="targetPoint" />
          </mxGeometry>
        </mxCell>
        <mxCell id="K6Ctk4DiYDlHX3P9UcAB-4" value="Create a window using&amp;nbsp; pygame.display.set_mode()" style="rounded=1;whiteSpace=wrap;html=1;fontSize=10;fillColor=#d5e8d4;strokeColor=#82b366;" parent="1" vertex="1">
          <mxGeometry x="210" y="300" width="130" height="60" as="geometry" />
        </mxCell>
        <mxCell id="K6Ctk4DiYDlHX3P9UcAB-5" value="Set window dimensions to Fullscreen using pygame.FULLSCREEN" style="rounded=1;whiteSpace=wrap;html=1;fontSize=10;fillColor=#d5e8d4;strokeColor=#82b366;" parent="1" vertex="1">
          <mxGeometry x="350" y="300" width="110" height="60" as="geometry" />
        </mxCell>
        <mxCell id="K6Ctk4DiYDlHX3P9UcAB-6" value="" style="endArrow=none;html=1;rounded=0;fontSize=10;exitX=1;exitY=0.5;exitDx=0;exitDy=0;entryX=0;entryY=0.5;entryDx=0;entryDy=0;" parent="1" source="K6Ctk4DiYDlHX3P9UcAB-4" target="K6Ctk4DiYDlHX3P9UcAB-5" edge="1">
          <mxGeometry width="50" height="50" relative="1" as="geometry">
            <mxPoint x="300" y="305" as="sourcePoint" />
            <mxPoint x="350" y="255" as="targetPoint" />
          </mxGeometry>
        </mxCell>
        <mxCell id="K6Ctk4DiYDlHX3P9UcAB-7" value="Set window name for referral to &quot;WIN&quot;" style="rounded=1;whiteSpace=wrap;html=1;fontSize=10;fillColor=#d5e8d4;strokeColor=#82b366;" parent="1" vertex="1">
          <mxGeometry x="470" y="300" width="110" height="60" as="geometry" />
        </mxCell>
        <mxCell id="K6Ctk4DiYDlHX3P9UcAB-8" value="" style="endArrow=none;html=1;rounded=0;fontSize=10;exitX=1;exitY=0.5;exitDx=0;exitDy=0;entryX=0;entryY=0.5;entryDx=0;entryDy=0;" parent="1" source="K6Ctk4DiYDlHX3P9UcAB-5" target="K6Ctk4DiYDlHX3P9UcAB-7" edge="1">
          <mxGeometry width="50" height="50" relative="1" as="geometry">
            <mxPoint x="420" y="300" as="sourcePoint" />
            <mxPoint x="470" y="250" as="targetPoint" />
          </mxGeometry>
        </mxCell>
        <mxCell id="K6Ctk4DiYDlHX3P9UcAB-9" value="Define colours for use within the program (eg. CHESSBLACK = 20,20,20 RGB)" style="rounded=1;whiteSpace=wrap;html=1;fontSize=10;fillColor=#d5e8d4;strokeColor=#82b366;" parent="1" vertex="1">
          <mxGeometry x="40" y="400" width="120" height="60" as="geometry" />
        </mxCell>
        <mxCell id="K6Ctk4DiYDlHX3P9UcAB-10" value="" style="endArrow=none;html=1;rounded=0;fontSize=10;entryX=0.5;entryY=1;entryDx=0;entryDy=0;exitX=0.5;exitY=0;exitDx=0;exitDy=0;" parent="1" source="K6Ctk4DiYDlHX3P9UcAB-9" target="eTlVAKslrcXKdiBdUREp-17" edge="1">
          <mxGeometry width="50" height="50" relative="1" as="geometry">
            <mxPoint x="240" y="510" as="sourcePoint" />
            <mxPoint x="290" y="460" as="targetPoint" />
          </mxGeometry>
        </mxCell>
        <mxCell id="K6Ctk4DiYDlHX3P9UcAB-11" value="" style="endArrow=none;html=1;rounded=0;fontSize=10;entryX=0.5;entryY=1;entryDx=0;entryDy=0;exitX=0.5;exitY=0;exitDx=0;exitDy=0;" parent="1" source="K6Ctk4DiYDlHX3P9UcAB-1" target="K6Ctk4DiYDlHX3P9UcAB-9" edge="1">
          <mxGeometry width="50" height="50" relative="1" as="geometry">
            <mxPoint x="210" y="520" as="sourcePoint" />
            <mxPoint x="260" y="470" as="targetPoint" />
          </mxGeometry>
        </mxCell>
        <mxCell id="K6Ctk4DiYDlHX3P9UcAB-13" value="Accept user input for chessboard width and height (modularity is a focus of the design)" style="rounded=1;whiteSpace=wrap;html=1;fontSize=10;fillColor=#d5e8d4;strokeColor=#82b366;" parent="1" vertex="1">
          <mxGeometry x="210" y="410" width="120" height="60" as="geometry" />
        </mxCell>
        <mxCell id="K6Ctk4DiYDlHX3P9UcAB-14" value="" style="endArrow=none;dashed=1;html=1;dashPattern=1 3;strokeWidth=2;rounded=0;fontSize=10;exitX=1;exitY=0.5;exitDx=0;exitDy=0;entryX=0;entryY=0.864;entryDx=0;entryDy=0;entryPerimeter=0;" parent="1" source="K6Ctk4DiYDlHX3P9UcAB-1" edge="1">
          <mxGeometry width="50" height="50" relative="1" as="geometry">
            <mxPoint x="350" y="510" as="sourcePoint" />
            <mxPoint x="200" y="529.6000000000001" as="targetPoint" />
          </mxGeometry>
        </mxCell>
        <mxCell id="K6Ctk4DiYDlHX3P9UcAB-15" value="Define variables such as the size of chessboard squares, chessboard starting positions, and set a loop-counter to 0" style="rounded=1;whiteSpace=wrap;html=1;fontSize=10;fillColor=#d5e8d4;strokeColor=#82b366;" parent="1" vertex="1">
          <mxGeometry x="340" y="410" width="140" height="60" as="geometry" />
        </mxCell>
        <mxCell id="K6Ctk4DiYDlHX3P9UcAB-16" value="" style="endArrow=none;html=1;rounded=0;fontSize=10;exitX=1;exitY=0.5;exitDx=0;exitDy=0;entryX=0;entryY=0.5;entryDx=0;entryDy=0;" parent="1" source="K6Ctk4DiYDlHX3P9UcAB-13" target="K6Ctk4DiYDlHX3P9UcAB-15" edge="1">
          <mxGeometry width="50" height="50" relative="1" as="geometry">
            <mxPoint x="450" y="470" as="sourcePoint" />
            <mxPoint x="500" y="420" as="targetPoint" />
          </mxGeometry>
        </mxCell>
        <mxCell id="K6Ctk4DiYDlHX3P9UcAB-17" value="While total chessboard width is less than the defined width, draw chessboard squares onto the window &quot;WIN&quot;. White and Black squares are drawn adjacent to each other" style="rounded=1;whiteSpace=wrap;html=1;fontSize=10;fillColor=#d5e8d4;strokeColor=#82b366;" parent="1" vertex="1">
          <mxGeometry x="560" y="480" width="210" height="60" as="geometry" />
        </mxCell>
        <mxCell id="K6Ctk4DiYDlHX3P9UcAB-18" value="" style="endArrow=none;html=1;rounded=0;fontSize=10;exitX=1;exitY=0.5;exitDx=0;exitDy=0;entryX=0;entryY=0.5;entryDx=0;entryDy=0;" parent="1" source="K6Ctk4DiYDlHX3P9UcAB-15" target="K6Ctk4DiYDlHX3P9UcAB-23" edge="1">
          <mxGeometry width="50" height="50" relative="1" as="geometry">
            <mxPoint x="550" y="490" as="sourcePoint" />
            <mxPoint x="480" y="390" as="targetPoint" />
          </mxGeometry>
        </mxCell>
        <mxCell id="K6Ctk4DiYDlHX3P9UcAB-19" value="Report and record the position and order in which squares are drawn to a dictionary" style="rounded=1;whiteSpace=wrap;html=1;fontSize=10;fillColor=#d5e8d4;strokeColor=#82b366;" parent="1" vertex="1">
          <mxGeometry x="210" y="480" width="120" height="60" as="geometry" />
        </mxCell>
        <mxCell id="K6Ctk4DiYDlHX3P9UcAB-20" value="" style="endArrow=none;html=1;rounded=0;fontSize=10;entryX=1;entryY=0.5;entryDx=0;entryDy=0;exitX=0;exitY=0.5;exitDx=0;exitDy=0;" parent="1" source="K6Ctk4DiYDlHX3P9UcAB-25" target="K6Ctk4DiYDlHX3P9UcAB-19" edge="1">
          <mxGeometry width="50" height="50" relative="1" as="geometry">
            <mxPoint x="530" y="380" as="sourcePoint" />
            <mxPoint x="650" y="440" as="targetPoint" />
          </mxGeometry>
        </mxCell>
        <mxCell id="K6Ctk4DiYDlHX3P9UcAB-23" value="Until the board has reached the height specified, the following section is looped;" style="rounded=1;whiteSpace=wrap;html=1;fontSize=10;fillColor=#d5e8d4;strokeColor=#82b366;" parent="1" vertex="1">
          <mxGeometry x="490" y="410" width="120" height="60" as="geometry" />
        </mxCell>
        <mxCell id="K6Ctk4DiYDlHX3P9UcAB-24" value="" style="endArrow=none;html=1;rounded=0;fontSize=10;entryX=0.25;entryY=0;entryDx=0;entryDy=0;exitX=0.75;exitY=1;exitDx=0;exitDy=0;" parent="1" source="K6Ctk4DiYDlHX3P9UcAB-23" target="K6Ctk4DiYDlHX3P9UcAB-17" edge="1">
          <mxGeometry width="50" height="50" relative="1" as="geometry">
            <mxPoint x="510" y="430" as="sourcePoint" />
            <mxPoint x="560" y="380" as="targetPoint" />
          </mxGeometry>
        </mxCell>
        <mxCell id="K6Ctk4DiYDlHX3P9UcAB-25" value="The counter for a completed row is incremented by 1, black and white starting positions are inverted and reset to the far left of the screen, and the process is restarted" style="rounded=1;whiteSpace=wrap;html=1;fontSize=10;fillColor=#d5e8d4;strokeColor=#82b366;" parent="1" vertex="1">
          <mxGeometry x="340" y="480" width="210" height="60" as="geometry" />
        </mxCell>
        <mxCell id="K6Ctk4DiYDlHX3P9UcAB-27" value="" style="endArrow=classic;html=1;rounded=0;fontSize=10;exitX=0;exitY=0.75;exitDx=0;exitDy=0;entryX=1;entryY=0.75;entryDx=0;entryDy=0;" parent="1" source="K6Ctk4DiYDlHX3P9UcAB-17" target="K6Ctk4DiYDlHX3P9UcAB-25" edge="1">
          <mxGeometry width="50" height="50" relative="1" as="geometry">
            <mxPoint x="530" y="460" as="sourcePoint" />
            <mxPoint x="580" y="410" as="targetPoint" />
          </mxGeometry>
        </mxCell>
        <mxCell id="K6Ctk4DiYDlHX3P9UcAB-28" value="" style="endArrow=classic;html=1;rounded=0;fontSize=10;exitX=1;exitY=0.25;exitDx=0;exitDy=0;entryX=0;entryY=0.25;entryDx=0;entryDy=0;" parent="1" source="K6Ctk4DiYDlHX3P9UcAB-25" target="K6Ctk4DiYDlHX3P9UcAB-17" edge="1">
          <mxGeometry width="50" height="50" relative="1" as="geometry">
            <mxPoint x="530" y="460" as="sourcePoint" />
            <mxPoint x="580" y="410" as="targetPoint" />
          </mxGeometry>
        </mxCell>
        <mxCell id="BqHGPQTl1dKRI6JXevEI-3" value="At this point, the program can generate a chessboard of a specified size, and records the coordinates of the generated squares" style="rounded=1;whiteSpace=wrap;html=1;fillColor=#d5e8d4;strokeColor=#82b366;" vertex="1" parent="1">
          <mxGeometry x="40" y="600" width="740" height="60" as="geometry" />
        </mxCell>
        <mxCell id="BqHGPQTl1dKRI6JXevEI-4" value="" style="endArrow=none;html=1;rounded=0;entryX=0.5;entryY=1;entryDx=0;entryDy=0;exitX=0.082;exitY=0.007;exitDx=0;exitDy=0;exitPerimeter=0;" edge="1" parent="1" source="BqHGPQTl1dKRI6JXevEI-3" target="K6Ctk4DiYDlHX3P9UcAB-1">
          <mxGeometry width="50" height="50" relative="1" as="geometry">
            <mxPoint x="100" y="600" as="sourcePoint" />
            <mxPoint x="210" y="550" as="targetPoint" />
          </mxGeometry>
        </mxCell>
        <mxCell id="BqHGPQTl1dKRI6JXevEI-5" value="create &quot;knight_drop&quot; Function" style="rounded=1;whiteSpace=wrap;html=1;fillColor=#fff2cc;strokeColor=#d6b656;" vertex="1" parent="1">
          <mxGeometry x="40" y="700" width="120" height="60" as="geometry" />
        </mxCell>
        <mxCell id="BqHGPQTl1dKRI6JXevEI-6" value="" style="endArrow=none;html=1;rounded=0;exitX=0.5;exitY=0;exitDx=0;exitDy=0;" edge="1" parent="1" source="BqHGPQTl1dKRI6JXevEI-5">
          <mxGeometry width="50" height="50" relative="1" as="geometry">
            <mxPoint x="330" y="720" as="sourcePoint" />
            <mxPoint x="100" y="660" as="targetPoint" />
          </mxGeometry>
        </mxCell>
        <mxCell id="BqHGPQTl1dKRI6JXevEI-7" value="" style="rounded=0;whiteSpace=wrap;html=1;" vertex="1" parent="1">
          <mxGeometry x="200" y="690" width="580" height="80" as="geometry" />
        </mxCell>
        <mxCell id="BqHGPQTl1dKRI6JXevEI-8" value="&lt;font style=&quot;font-size: 11px;&quot;&gt;Import a sprite for a Knight chesspiece and place it to the side of the board&lt;/font&gt;" style="rounded=1;whiteSpace=wrap;html=1;fillColor=#fff2cc;strokeColor=#d6b656;" vertex="1" parent="1">
          <mxGeometry x="210" y="700" width="120" height="60" as="geometry" />
        </mxCell>
        <mxCell id="BqHGPQTl1dKRI6JXevEI-9" value="Using the coordinates provided by the create_board function, detect the knight sprite being dragged to, and released within the area of the square" style="rounded=1;whiteSpace=wrap;html=1;fontSize=11;fillColor=#f8cecc;strokeColor=#b85450;" vertex="1" parent="1">
          <mxGeometry x="340" y="700" width="200" height="60" as="geometry" />
        </mxCell>
        <mxCell id="BqHGPQTl1dKRI6JXevEI-10" value="" style="endArrow=none;html=1;rounded=0;fontSize=11;exitX=1;exitY=0.5;exitDx=0;exitDy=0;entryX=0;entryY=0.5;entryDx=0;entryDy=0;" edge="1" parent="1" source="BqHGPQTl1dKRI6JXevEI-8" target="BqHGPQTl1dKRI6JXevEI-9">
          <mxGeometry width="50" height="50" relative="1" as="geometry">
            <mxPoint x="410" y="710" as="sourcePoint" />
            <mxPoint x="460" y="660" as="targetPoint" />
          </mxGeometry>
        </mxCell>
        <mxCell id="BqHGPQTl1dKRI6JXevEI-11" value="" style="endArrow=none;dashed=1;html=1;dashPattern=1 3;strokeWidth=2;rounded=0;fontSize=11;exitX=1;exitY=0.5;exitDx=0;exitDy=0;entryX=0;entryY=0.5;entryDx=0;entryDy=0;" edge="1" parent="1" source="BqHGPQTl1dKRI6JXevEI-5" target="BqHGPQTl1dKRI6JXevEI-7">
          <mxGeometry width="50" height="50" relative="1" as="geometry">
            <mxPoint x="300" y="730" as="sourcePoint" />
            <mxPoint x="350" y="680" as="targetPoint" />
          </mxGeometry>
        </mxCell>
        <mxCell id="BqHGPQTl1dKRI6JXevEI-12" value="Force the knight to &quot;snap-to&quot; the center of the square, and highlight/mark the square to identify it as having been &quot;traversed&quot; by the knight" style="rounded=1;whiteSpace=wrap;html=1;fontSize=11;fillColor=#f8cecc;strokeColor=#b85450;" vertex="1" parent="1">
          <mxGeometry x="550" y="700" width="220" height="60" as="geometry" />
        </mxCell>
        <mxCell id="BqHGPQTl1dKRI6JXevEI-13" value="" style="endArrow=none;html=1;rounded=0;fontSize=11;entryX=0;entryY=0.5;entryDx=0;entryDy=0;exitX=1;exitY=0.5;exitDx=0;exitDy=0;" edge="1" parent="1" source="BqHGPQTl1dKRI6JXevEI-9" target="BqHGPQTl1dKRI6JXevEI-12">
          <mxGeometry width="50" height="50" relative="1" as="geometry">
            <mxPoint x="500" y="770" as="sourcePoint" />
            <mxPoint x="550" y="720" as="targetPoint" />
          </mxGeometry>
        </mxCell>
        <mxCell id="BqHGPQTl1dKRI6JXevEI-14" value="create an algorithm for the traversal of the coordinates in a knight pattern" style="rounded=1;whiteSpace=wrap;html=1;fontSize=11;fillColor=#f8cecc;strokeColor=#b85450;" vertex="1" parent="1">
          <mxGeometry x="40" y="900" width="120" height="60" as="geometry" />
        </mxCell>
        <mxCell id="BqHGPQTl1dKRI6JXevEI-15" value="" style="endArrow=none;html=1;rounded=0;fontSize=11;entryX=0.5;entryY=1;entryDx=0;entryDy=0;exitX=0.5;exitY=0;exitDx=0;exitDy=0;" edge="1" parent="1" source="BqHGPQTl1dKRI6JXevEI-16" target="BqHGPQTl1dKRI6JXevEI-5">
          <mxGeometry width="50" height="50" relative="1" as="geometry">
            <mxPoint x="120" y="780" as="sourcePoint" />
            <mxPoint x="310" y="700" as="targetPoint" />
          </mxGeometry>
        </mxCell>
        <mxCell id="BqHGPQTl1dKRI6JXevEI-16" value="Write a means for the knight to move across the board manually in a drag-and-drop manner" style="rounded=1;whiteSpace=wrap;html=1;fontSize=11;fillColor=#f8cecc;strokeColor=#b85450;" vertex="1" parent="1">
          <mxGeometry x="40" y="800" width="120" height="60" as="geometry" />
        </mxCell>
        <mxCell id="BqHGPQTl1dKRI6JXevEI-17" value="" style="endArrow=none;html=1;rounded=0;fontSize=11;entryX=0.5;entryY=1;entryDx=0;entryDy=0;exitX=0.5;exitY=0;exitDx=0;exitDy=0;" edge="1" parent="1" source="BqHGPQTl1dKRI6JXevEI-14" target="BqHGPQTl1dKRI6JXevEI-16">
          <mxGeometry width="50" height="50" relative="1" as="geometry">
            <mxPoint x="260" y="840" as="sourcePoint" />
            <mxPoint x="310" y="790" as="targetPoint" />
          </mxGeometry>
        </mxCell>
      </root>
    </mxGraphModel>
  </diagram>
</mxfile>
